<svg xmlns="http://www.w3.org/2000/svg" viewBox="0 0 529.4692 597.043"><defs><style>

.offline{fill:#666;}
.online{fill: #BB6;}

</style></defs><title>Equipment Status Map</title>


<g id="Layer_1" data-name="Layer 1"><rect class="offline" x="35.43921" y="2" width="48" height="169"/><rect class="offline" x="158.43921" y="2" width="51" height="169"/><rect class="offline" x="112.43921" width="17" height="84.5"/><rect class="offline" x="112.43921" y="162" width="17" height="82"/><polygon class="offline" points="35.439 333 35.439 173 59.439 184 83.439 173 83.439 283 158.439 284 158.439 186 183.939 178 209.439 184 209.439 333 35.439 333"/><rect class="offline" x="95.43921" y="251" width="50" height="24"/><rect class="offline" x="310.94997" y="47.26243" width="46" height="171"/><path class="offline" d="M-438.62418,0" transform="translate(-30.37582 -15)"/><rect class="offline" x="391.94997" y="46.26243" width="14" height="74"/><rect class="offline" x="439.94848" y="47.26243" width="46.04601" height="172.71668"/><rect class="offline" x="391.94997" y="193.18205" width="14.26221" height="73.34853"/><rect class="offline" x="376.05494" y="272.80939" width="46.1326" height="22.92818"/><rect class="offline" x="17.12323" y="351.19958" width="422.67649" height="41.1608"/><rect class="offline" x="17.12323" y="395.57352" width="422.67649" height="41.50669"/><rect class="offline" x="17.12323" y="511.5887" width="422.67649" height="40.97333"/><rect class="offline" x="17.12323" y="555.41683" width="422.67649" height="41.62617"/><rect class="offline" y="468.1167" width="231.30018" height="12.49053"/><rect class="offline" x="298.84804" y="468.43008" width="230.62115" height="12.00755"/></g><g id="Station3"><rect class="offline" x="310.92696" y="220.97911" width="46.04601" height="45.75496"/></g><g id="Station4"><rect class="offline" x="439.94848" y="222.73762" width="46.04601" height="45.75496"/></g><g id="Crane1"><polygon class="offline" points="233.953 468.117 233.953 481.571 243.793 481.571 243.793 495.347 286.102 495.347 286.102 481.732 296.532 481.732 296.532 466.812 286.299 466.812 286.299 453.431 243.989 453.431 243.989 467.009 233.953 467.009 233.953 468.117"/></g><g id="Crane2"><polygon class="offline" points="112.439 160 112.439 149 95.439 149 95.439 100 112.439 100 112.439 86.5 129.439 86.5 129.439 99 145.439 99 145.439 150 129.439 150 129.439 160 112.439 160"/></g><g id="Crane3"><polygon class="offline" points="391.095 121.953 391.095 133.621 376.048 133.621 376.048 179.809 391.095 179.809 391.095 191.397 407.43 191.397 407.43 179.97 422.156 179.97 422.156 133.621 407.269 133.621 407.269 121.953 391.095 121.953"/></g><g id="Station1"><rect class="offline" x="471.43094" y="511.5887" width="52.51497" height="52.27114"/></g><g id="Station2"><rect class="offline" x="471.43094" y="395.57352" width="52.51497" height="52.151"/></g></svg>
			