<svg xmlns="http://www.w3.org/2000/svg" viewBox="0 0 1205 880.21">
  <title></title>
  <g id="BaseLayer">
    <path id="crane-9001-animate" d="M97.5,95.5v0Z" transform="translate(-34 -13)" style="fill: #fff;stroke: #000;stroke-miterlimit: 10"/>
    <rect class="baseLayerMapComponent" x="27.5" y="69.5" width="21" height="217" style="fill: #ededee;stroke: #000;stroke-miterlimit: 10"/>
    <rect class="baseLayerMapComponent" x="78.5" y="69.5" width="21" height="217" style="fill: #ededee;stroke: #000;stroke-miterlimit: 10"/>
    <rect class="baseLayerMapComponent" x="59.5" y="64.5" width="8" height="99" style="fill: #520f91;stroke: #000;stroke-miterlimit: 10"/>
    <rect class="baseLayerMapComponent" x="59.5" y="208.5" width="8" height="156" style="fill: #520f91;stroke: #000;stroke-miterlimit: 10"/>
    <rect class="baseLayerMapComponent" x="0.5" y="69.5" width="21" height="217" style="fill: #ededee;stroke: #000;stroke-miterlimit: 10"/>
    <rect class="baseLayerMapComponent" x="104.5" y="69.5" width="21" height="217" style="fill: #ededee;stroke: #000;stroke-miterlimit: 10"/>
    <path id="crane-9001-animate-2" data-name="crane-9001-animate" d="M405.5,96.5v0Z" transform="translate(-34 -13)" style="fill: #fff;stroke: #000;stroke-miterlimit: 10"/>
    <rect class="baseLayerMapComponent" x="335.5" y="70.5" width="21" height="217" style="fill: #ededee;stroke: #000;stroke-miterlimit: 10"/>
    <rect class="baseLayerMapComponent" x="386.5" y="70.5" width="21" height="217" style="fill: #ededee;stroke: #000;stroke-miterlimit: 10"/>
    <rect class="baseLayerMapComponent" x="367.5" y="65.5" width="8" height="99" style="fill: #520f91;stroke: #000;stroke-miterlimit: 10"/>
    <rect class="baseLayerMapComponent" x="308.5" y="70.5" width="21" height="217" style="fill: #ededee;stroke: #000;stroke-miterlimit: 10"/>
    <rect class="baseLayerMapComponent" x="412.5" y="70.5" width="21" height="217" style="fill: #ededee;stroke: #000;stroke-miterlimit: 10"/>
    <path id="crane-9001-animate-3" data-name="crane-9001-animate" d="M558.5,96.5v0Z" transform="translate(-34 -13)" style="fill: #fff;stroke: #000;stroke-miterlimit: 10"/>
    <rect class="baseLayerMapComponent" x="488.5" y="70.5" width="21" height="217" style="fill: #ededee;stroke: #000;stroke-miterlimit: 10"/>
    <rect class="baseLayerMapComponent" x="539.5" y="70.5" width="21" height="217" style="fill: #ededee;stroke: #000;stroke-miterlimit: 10"/>
    <rect class="baseLayerMapComponent" x="520.5" y="65.5" width="8" height="99" style="fill: #520f91;stroke: #000;stroke-miterlimit: 10"/>
    <rect class="baseLayerMapComponent" x="461.5" y="70.5" width="21" height="217" style="fill: #ededee;stroke: #000;stroke-miterlimit: 10"/>
    <rect class="baseLayerMapComponent" x="565.5" y="70.5" width="21" height="217" style="fill: #ededee;stroke: #000;stroke-miterlimit: 10"/>
    <path id="crane-9001-animate-4" data-name="crane-9001-animate" d="M713.5,96.5v0Z" transform="translate(-34 -13)" style="fill: #fff;stroke: #000;stroke-miterlimit: 10"/>
    <rect class="baseLayerMapComponent" x="643.5" y="70.5" width="21" height="217" style="fill: #ededee;stroke: #000;stroke-miterlimit: 10"/>
    <rect class="baseLayerMapComponent" x="694.5" y="70.5" width="21" height="217" style="fill: #ededee;stroke: #000;stroke-miterlimit: 10"/>
    <rect class="baseLayerMapComponent" x="675.5" y="65.5" width="8" height="99" style="fill: #520f91;stroke: #000;stroke-miterlimit: 10"/>
    <rect class="baseLayerMapComponent" x="616.5" y="70.5" width="21" height="217" style="fill: #ededee;stroke: #000;stroke-miterlimit: 10"/>
    <rect class="baseLayerMapComponent" x="720.5" y="70.5" width="21" height="217" style="fill: #ededee;stroke: #000;stroke-miterlimit: 10"/>
    <path id="crane-9001-animate-5" data-name="crane-9001-animate" d="M866.5,97.5v0Z" transform="translate(-34 -13)" style="fill: #fff;stroke: #000;stroke-miterlimit: 10"/>
    <rect class="baseLayerMapComponent" x="796.5" y="71.5" width="21" height="217" style="fill: #ededee;stroke: #000;stroke-miterlimit: 10"/>
    <rect class="baseLayerMapComponent" x="847.5" y="71.5" width="21" height="217" style="fill: #ededee;stroke: #000;stroke-miterlimit: 10"/>
    <rect class="baseLayerMapComponent" x="828.5" y="66.5" width="8" height="99" style="fill: #520f91;stroke: #000;stroke-miterlimit: 10"/>
    <rect class="baseLayerMapComponent" x="769.5" y="71.5" width="21" height="217" style="fill: #ededee;stroke: #000;stroke-miterlimit: 10"/>
    <rect class="baseLayerMapComponent" x="873.5" y="71.5" width="21" height="217" style="fill: #ededee;stroke: #000;stroke-miterlimit: 10"/>
    <path id="crane-9001-animate-6" data-name="crane-9001-animate" d="M1021.5,97.5v0Z" transform="translate(-34 -13)" style="fill: #fff;stroke: #000;stroke-miterlimit: 10"/>
    <rect class="baseLayerMapComponent" x="951.5" y="71.5" width="21" height="217" style="fill: #ededee;stroke: #000;stroke-miterlimit: 10"/>
    <rect class="baseLayerMapComponent" x="1002.5" y="71.5" width="21" height="217" style="fill: #ededee;stroke: #000;stroke-miterlimit: 10"/>
    <rect class="baseLayerMapComponent" x="983.5" y="66.5" width="8" height="99" style="fill: #520f91;stroke: #000;stroke-miterlimit: 10"/>
    <rect class="baseLayerMapComponent" x="924.5" y="71.5" width="21" height="217" style="fill: #ededee;stroke: #000;stroke-miterlimit: 10"/>
    <rect class="baseLayerMapComponent" x="1028.5" y="71.5" width="21" height="217" style="fill: #ededee;stroke: #000;stroke-miterlimit: 10"/>
    <rect class="baseLayerMapComponent" x="1106.5" y="71.5" width="21" height="217" style="fill: #ededee;stroke: #000;stroke-miterlimit: 10"/>
    <rect class="baseLayerMapComponent" x="1157.5" y="71.5" width="21" height="217" style="fill: #ededee;stroke: #000;stroke-miterlimit: 10"/>
    <rect class="baseLayerMapComponent" x="1138.5" y="66.5" width="8" height="99" style="fill: #520f91;stroke: #000;stroke-miterlimit: 10"/>
    <rect class="baseLayerMapComponent" x="1079.5" y="71.5" width="21" height="217" style="fill: #ededee;stroke: #000;stroke-miterlimit: 10"/>
    <rect class="baseLayerMapComponent" x="1183.5" y="71.5" width="21" height="217" style="fill: #ededee;stroke: #000;stroke-miterlimit: 10"/>
    <rect class="baseLayerMapComponent" x="367.5" y="209.5" width="8" height="156" style="fill: #520f91;stroke: #000;stroke-miterlimit: 10"/>
    <rect class="baseLayerMapComponent" x="520.5" y="209.5" width="8" height="156" style="fill: #520f91;stroke: #000;stroke-miterlimit: 10"/>
    <rect class="baseLayerMapComponent" x="675.5" y="209.5" width="8" height="156" style="fill: #520f91;stroke: #000;stroke-miterlimit: 10"/>
    <rect class="baseLayerMapComponent" x="828.5" y="210.5" width="8" height="156" style="fill: #520f91;stroke: #000;stroke-miterlimit: 10"/>
    <rect class="baseLayerMapComponent" x="983.5" y="210.5" width="8" height="156" style="fill: #520f91;stroke: #000;stroke-miterlimit: 10"/>
    <rect class="baseLayerMapComponent" x="1138.5" y="210.5" width="8" height="156" style="fill: #520f91;stroke: #000;stroke-miterlimit: 10"/>
    <rect class="baseLayerMapComponent" x="214.5" y="208.5" width="8" height="156" style="fill: #520f91;stroke: #000;stroke-miterlimit: 10"/>
    <rect class="baseLayerMapComponent" x="105.5" y="571.5" width="21" height="217" style="fill: #ededee;stroke: #000;stroke-miterlimit: 10"/>
    <rect class="baseLayerMapComponent" x="156.5" y="571.5" width="21" height="217" style="fill: #ededee;stroke: #000;stroke-miterlimit: 10"/>
    <rect class="baseLayerMapComponent" x="137.5" y="566.5" width="8" height="99" style="fill: #520f91;stroke: #000;stroke-miterlimit: 10"/>
    <rect class="baseLayerMapComponent" x="137.5" y="710.5" width="8" height="156" style="fill: #520f91;stroke: #000;stroke-miterlimit: 10"/>
    <rect class="baseLayerMapComponent" x="78.5" y="571.5" width="21" height="217" style="fill: #ededee;stroke: #000;stroke-miterlimit: 10"/>
    <rect class="baseLayerMapComponent" x="182.5" y="571.5" width="21" height="217" style="fill: #ededee;stroke: #000;stroke-miterlimit: 10"/>
    <rect class="baseLayerMapComponent" x="258.5" y="571.5" width="21" height="217" style="fill: #ededee;stroke: #000;stroke-miterlimit: 10"/>
    <rect class="baseLayerMapComponent" x="309.5" y="571.5" width="21" height="217" style="fill: #ededee;stroke: #000;stroke-miterlimit: 10"/>
    <rect class="baseLayerMapComponent" x="290.5" y="566.5" width="8" height="99" style="fill: #520f91;stroke: #000;stroke-miterlimit: 10"/>
    <rect class="baseLayerMapComponent" x="290.5" y="710.5" width="8" height="156" style="fill: #520f91;stroke: #000;stroke-miterlimit: 10"/>
    <rect class="baseLayerMapComponent" x="231.5" y="571.5" width="21" height="217" style="fill: #ededee;stroke: #000;stroke-miterlimit: 10"/>
    <rect class="baseLayerMapComponent" x="335.5" y="571.5" width="21" height="217" style="fill: #ededee;stroke: #000;stroke-miterlimit: 10"/>
    <rect class="baseLayerMapComponent" x="413.5" y="571.5" width="21" height="217" style="fill: #ededee;stroke: #000;stroke-miterlimit: 10"/>
    <rect class="baseLayerMapComponent" x="464.5" y="571.5" width="21" height="217" style="fill: #ededee;stroke: #000;stroke-miterlimit: 10"/>
    <rect class="baseLayerMapComponent" x="445.5" y="566.5" width="8" height="99" style="fill: #520f91;stroke: #000;stroke-miterlimit: 10"/>
    <rect class="baseLayerMapComponent" x="445.5" y="710.5" width="8" height="156" style="fill: #520f91;stroke: #000;stroke-miterlimit: 10"/>
    <rect class="baseLayerMapComponent" x="386.5" y="571.5" width="21" height="217" style="fill: #ededee;stroke: #000;stroke-miterlimit: 10"/>
    <rect class="baseLayerMapComponent" x="490.5" y="571.5" width="21" height="217" style="fill: #ededee;stroke: #000;stroke-miterlimit: 10"/>
    <rect class="baseLayerMapComponent" x="566.5" y="572.5" width="21" height="217" style="fill: #ededee;stroke: #000;stroke-miterlimit: 10"/>
    <rect class="baseLayerMapComponent" x="617.5" y="572.5" width="21" height="217" style="fill: #ededee;stroke: #000;stroke-miterlimit: 10"/>
    <rect class="baseLayerMapComponent" x="598.5" y="567.5" width="8" height="99" style="fill: #520f91;stroke: #000;stroke-miterlimit: 10"/>
    <rect class="baseLayerMapComponent" x="598.5" y="711.5" width="8" height="156" style="fill: #520f91;stroke: #000;stroke-miterlimit: 10"/>
    <rect class="baseLayerMapComponent" x="539.5" y="572.5" width="21" height="217" style="fill: #ededee;stroke: #000;stroke-miterlimit: 10"/>
    <rect class="baseLayerMapComponent" x="643.5" y="572.5" width="21" height="217" style="fill: #ededee;stroke: #000;stroke-miterlimit: 10"/>
    <rect class="baseLayerMapComponent" x="721.5" y="573.5" width="21" height="217" style="fill: #ededee;stroke: #000;stroke-miterlimit: 10"/>
    <rect class="baseLayerMapComponent" x="772.5" y="573.5" width="21" height="217" style="fill: #ededee;stroke: #000;stroke-miterlimit: 10"/>
    <rect class="baseLayerMapComponent" x="753.5" y="568.5" width="8" height="99" style="fill: #520f91;stroke: #000;stroke-miterlimit: 10"/>
    <rect class="baseLayerMapComponent" x="753.5" y="712.5" width="8" height="156" style="fill: #520f91;stroke: #000;stroke-miterlimit: 10"/>
    <rect class="baseLayerMapComponent" x="694.5" y="573.5" width="21" height="217" style="fill: #ededee;stroke: #000;stroke-miterlimit: 10"/>
    <rect class="baseLayerMapComponent" x="798.5" y="573.5" width="21" height="217" style="fill: #ededee;stroke: #000;stroke-miterlimit: 10"/>
    <rect class="baseLayerMapComponent" x="876.5" y="573.5" width="21" height="217" style="fill: #ededee;stroke: #000;stroke-miterlimit: 10"/>
    <rect class="baseLayerMapComponent" x="927.5" y="573.5" width="21" height="217" style="fill: #ededee;stroke: #000;stroke-miterlimit: 10"/>
    <rect class="baseLayerMapComponent" x="908.5" y="568.5" width="8" height="99" style="fill: #520f91;stroke: #000;stroke-miterlimit: 10"/>
    <rect class="baseLayerMapComponent" x="908.5" y="712.5" width="8" height="156" style="fill: #520f91;stroke: #000;stroke-miterlimit: 10"/>
    <rect class="baseLayerMapComponent" x="849.5" y="573.5" width="21" height="217" style="fill: #ededee;stroke: #000;stroke-miterlimit: 10"/>
    <rect class="baseLayerMapComponent" x="953.5" y="573.5" width="21" height="217" style="fill: #ededee;stroke: #000;stroke-miterlimit: 10"/>
    <rect class="baseLayerMapComponent" x="1029.5" y="574.5" width="21" height="217" style="fill: #ededee;stroke: #000;stroke-miterlimit: 10"/>
    <rect class="baseLayerMapComponent" x="1080.5" y="574.5" width="21" height="217" style="fill: #ededee;stroke: #000;stroke-miterlimit: 10"/>
    <rect class="baseLayerMapComponent" x="1061.5" y="569.5" width="8" height="99" style="fill: #520f91;stroke: #000;stroke-miterlimit: 10"/>
    <rect class="baseLayerMapComponent" x="1061.5" y="713.5" width="8" height="156" style="fill: #520f91;stroke: #000;stroke-miterlimit: 10"/>
    <rect class="baseLayerMapComponent" x="1002.5" y="574.5" width="21" height="217" style="fill: #ededee;stroke: #000;stroke-miterlimit: 10"/>
    <rect class="baseLayerMapComponent" x="1106.5" y="574.5" width="21" height="217" style="fill: #ededee;stroke: #000;stroke-miterlimit: 10"/>
    <rect class="baseLayerMapComponent" x="182.5" y="69.5" width="21" height="217" style="fill: #ededee;stroke: #000;stroke-miterlimit: 10"/>
    <rect class="baseLayerMapComponent" x="233.5" y="69.5" width="21" height="217" style="fill: #ededee;stroke: #000;stroke-miterlimit: 10"/>
    <rect class="baseLayerMapComponent" x="214.5" y="64.5" width="8" height="99" style="fill: #520f91;stroke: #000;stroke-miterlimit: 10"/>
    <rect class="baseLayerMapComponent" x="155.5" y="69.5" width="21" height="217" style="fill: #ededee;stroke: #000;stroke-miterlimit: 10"/>
    <rect class="baseLayerMapComponent" x="259.5" y="69.5" width="21" height="217" style="fill: #ededee;stroke: #000;stroke-miterlimit: 10"/>
  </g>
  <g id="LayerInput" class="selectableArea">
    <polygon class="selectableMapComponent" id="Level-01-LayerInput" points="100.5 373.5 79.5 373.5 79.5 299.5 89.5 289.5 99.5 299.5 100.5 373.5" style="fill: #fff;stroke: #000;stroke-miterlimit: 10"/>
    <polygon class="selectableMapComponent" id="Level-02-Input4" points="233.57 405.91 255.48 405.91 255.48 390.57 244.52 384 233.57 390.57 233.57 405.91" style="fill: #fff;stroke: #000;stroke-miterlimit: 10"/>
    <polygon class="selectableMapComponent" id="Level-02-Input3" points="233.57 420.44 255.48 420.44 255.48 405.11 244.52 398.54 233.57 405.11 233.57 420.44" style="fill: #fff;stroke: #000;stroke-miterlimit: 10"/>
    <polygon class="selectableMapComponent" id="Level-02-Input2" points="233.63 434.02 255.53 433.91 255.45 418.57 244.46 412.06 233.54 418.69 233.63 434.02" style="fill: #fff;stroke: #000;stroke-miterlimit: 10"/>
    <polygon class="selectableMapComponent" id="Level-02-Input1" points="233.57 448.5 255.48 448.5 255.48 433.16 244.52 426.59 233.57 433.16 233.57 448.5" style="fill: #fff;stroke: #000;stroke-miterlimit: 10"/>
    <polygon class="selectableMapComponent" id="Level-02-BCR" points="213.5 424.5 213.5 442.5 231.5 433.5 213.5 424.5" style="fill: #fff;stroke: #000;stroke-miterlimit: 10"/>
    <polygon class="selectableMapComponent" id="Level-03-LayerInput" points="408.5 374.5 387.5 374.5 387.5 300.5 397.5 290.5 407.5 300.5 408.5 374.5" style="fill: #fff;stroke: #000;stroke-miterlimit: 10"/>
    <polygon class="selectableMapComponent" id="Level-04-LayerInput" points="561.5 374.5 540.5 374.5 540.5 300.5 550.5 290.5 560.5 300.5 561.5 374.5" style="fill: #fff;stroke: #000;stroke-miterlimit: 10"/>
    <polygon class="selectableMapComponent" id="Level-05-LayerInput" points="716.5 374.5 695.5 374.5 695.5 300.5 705.5 290.5 715.5 300.5 716.5 374.5" style="fill: #fff;stroke: #000;stroke-miterlimit: 10"/>
    <polygon class="selectableMapComponent" id="Level-06-LayerInput" points="869.5 375.5 848.5 375.5 848.5 301.5 858.5 291.5 868.5 301.5 869.5 375.5" style="fill: #fff;stroke: #000;stroke-miterlimit: 10"/>
    <polygon class="selectableMapComponent" id="Level-07-LayerInput" points="1024.5 375.5 1003.5 375.5 1003.5 301.5 1013.5 291.5 1023.5 301.5 1024.5 375.5" style="fill: #fff;stroke: #000;stroke-miterlimit: 10"/>
    <polygon class="selectableMapComponent" id="Level-08-LayerInput" points="1179.5 375.5 1158.5 375.5 1158.5 301.5 1168.5 291.5 1178.5 301.5 1179.5 375.5" style="fill: #fff;stroke: #000;stroke-miterlimit: 10"/>
    <polygon class="selectableMapComponent" id="Level-09-LayerInput" points="178.5 875.5 157.5 875.5 157.5 801.5 167.5 791.5 177.5 801.5 178.5 875.5" style="fill: #fff;stroke: #000;stroke-miterlimit: 10"/>
    <polygon class="selectableMapComponent" id="Level-10-LayerInput" points="331.5 875.5 310.5 875.5 310.5 801.5 320.5 791.5 330.5 801.5 331.5 875.5" style="fill: #fff;stroke: #000;stroke-miterlimit: 10"/>
    <polygon class="selectableMapComponent" id="Level-11-LayerInput" points="486.5 875.5 465.5 875.5 465.5 801.5 475.5 791.5 485.5 801.5 486.5 875.5" style="fill: #fff;stroke: #000;stroke-miterlimit: 10"/>
    <polygon class="selectableMapComponent" id="Level-12-LayerInput" points="639.5 876.5 618.5 876.5 618.5 802.5 628.5 792.5 638.5 802.5 639.5 876.5" style="fill: #fff;stroke: #000;stroke-miterlimit: 10"/>
    <polygon class="selectableMapComponent" id="Level-13-LayerInput" points="794.5 877.5 773.5 877.5 773.5 803.5 783.5 793.5 793.5 803.5 794.5 877.5" style="fill: #fff;stroke: #000;stroke-miterlimit: 10"/>
    <polygon class="selectableMapComponent" id="Level-14-LayerInput" points="949.5 877.5 928.5 877.5 928.5 803.5 938.5 793.5 948.5 803.5 949.5 877.5" style="fill: #fff;stroke: #000;stroke-miterlimit: 10"/>
    <polygon class="selectableMapComponent" id="Level-15-LayerInput" points="1102.5 878.5 1081.5 878.5 1081.5 804.5 1091.5 794.5 1101.5 804.5 1102.5 878.5" style="fill: #fff;stroke: #000;stroke-miterlimit: 10"/>
  </g>
  <g id="LayerOutput" class="selectableArea">
    <polygon class="selectableMapComponent" id="Level-05-Output5" points="665.51 435.59 643.6 435.59 643.6 450.93 654.56 457.5 665.51 450.93 665.51 435.59" style="fill: #fff;stroke: #000;stroke-miterlimit: 10"/>
    <polygon class="selectableMapComponent" id="Level-05-Output4" points="665.45 422.01 643.54 422.13 643.63 437.47 654.62 443.98 665.53 437.35 665.45 422.01" style="fill: #fff;stroke: #000;stroke-miterlimit: 10"/>
    <polygon class="selectableMapComponent" id="Level-01-LayerOutput" points="27.5 290.5 48.5 290.5 48.5 364.5 38.5 374.5 28.5 364.5 27.5 290.5" style="fill: #fff;stroke: #000;stroke-miterlimit: 10"/>
    <polygon class="selectableMapComponent" id="Level-03-Reject3" points="409.51 429.59 387.6 429.59 387.6 444.93 398.56 451.5 409.51 444.93 409.51 429.59" style="fill: #fff;stroke: #000;stroke-miterlimit: 10"/>
    <polygon class="selectableMapComponent" id="Level-03-Reject2" points="409.45 416.01 387.54 416.13 387.63 431.47 398.62 437.98 409.54 431.35 409.45 416.01" style="fill: #fff;stroke: #000;stroke-miterlimit: 10"/>
    <polygon class="selectableMapComponent" id="Level-03-Reject1" points="409.51 401.54 387.6 401.54 387.6 416.87 398.56 423.44 409.51 416.87 409.51 401.54" style="fill: #fff;stroke: #000;stroke-miterlimit: 10"/>
    <polygon class="selectableMapComponent" id="Level-05-Output3" points="665.51 409.59 643.6 409.59 643.6 424.93 654.56 431.5 665.51 424.93 665.51 409.59" style="fill: #fff;stroke: #000;stroke-miterlimit: 10"/>
    <polygon class="selectableMapComponent" id="Level-05-Output2" points="665.45 396.01 643.54 396.13 643.63 411.47 654.62 417.98 665.53 411.35 665.45 396.01" style="fill: #fff;stroke: #000;stroke-miterlimit: 10"/>
    <polygon class="selectableMapComponent" id="Level-05-Output1" points="665.51 381.54 643.6 381.54 643.6 396.87 654.56 403.44 665.51 396.87 665.51 381.54" style="fill: #fff;stroke: #000;stroke-miterlimit: 10"/>
    <polygon class="selectableMapComponent" id="Level-08-Output5" points="1129.51 435.59 1107.6 435.59 1107.6 450.93 1118.56 457.5 1129.51 450.93 1129.51 435.59" style="fill: #fff;stroke: #000;stroke-miterlimit: 10"/>
    <polygon class="selectableMapComponent" id="Level-08-Output4" points="1129.45 422.01 1107.54 422.13 1107.63 437.47 1118.62 443.98 1129.54 437.35 1129.45 422.01" style="fill: #fff;stroke: #000;stroke-miterlimit: 10"/>
    <polygon class="selectableMapComponent" id="Level-08-Output3" points="1129.51 409.59 1107.6 409.59 1107.6 424.93 1118.56 431.5 1129.51 424.93 1129.51 409.59" style="fill: #fff;stroke: #000;stroke-miterlimit: 10"/>
    <polygon class="selectableMapComponent" id="Level-08-Output2" points="1129.45 396.01 1107.54 396.13 1107.63 411.47 1118.62 417.98 1129.54 411.35 1129.45 396.01" style="fill: #fff;stroke: #000;stroke-miterlimit: 10"/>
    <polygon class="selectableMapComponent" id="Level-08-Output1" points="1129.51 381.54 1107.6 381.54 1107.6 396.87 1118.56 403.44 1129.51 396.87 1129.51 381.54" style="fill: #fff;stroke: #000;stroke-miterlimit: 10"/>
    <text class="selectableMapComponent" transform="translate(170 451.89)" style="font-size: 18px;font-family: ArialMT, Arial;letter-spacing: -0.09611002604166667em">1<tspan x="8.28" y="0" style="letter-spacing: -0.035400390625em">1</tspan><tspan x="17.65" y="0" style="letter-spacing: -0.028889973958333332em">0</tspan><tspan x="27.15" y="0" style="letter-spacing: 0.005995008680555556em">1</tspan></text>
    <text class="selectableMapComponent" transform="translate(224 472.89)" style="font-size: 18px;font-family: ArialMT, Arial;letter-spacing: -0.002902560763888889em">I<tspan x="4.95" y="0" style="letter-spacing: -0.004503038194444444em">n</tspan><tspan x="14.88" y="0" style="letter-spacing: -0.002685546875em">p</tspan><tspan x="24.84" y="0" style="letter-spacing: -0.005398220486111111em">u</tspan><tspan x="34.75" y="0" style="letter-spacing: 0.005995008680555556em">t</tspan></text>
    <text class="selectableMapComponent" transform="translate(375 472.89)" style="font-size: 18px;font-family: ArialMT, Arial;letter-spacing: -0.014187282986111112em">R<tspan x="12.74" y="0" style="letter-spacing: -0.003119574652777778em">e</tspan><tspan x="22.7" y="0" style="letter-spacing: -0.00037977430555555556em">j</tspan><tspan x="26.69" y="0" style="letter-spacing: 0.0008951822916666666em">e</tspan><tspan x="36.72" y="0" style="letter-spacing: 0.00830078125em">c</tspan><tspan x="45.87" y="0" style="letter-spacing: 0.005995008680555556em">t</tspan></text>
    <text class="selectableMapComponent" transform="translate(338 451.89)" style="font-size: 18px;font-family: ArialMT, Arial;letter-spacing: -0.05088975694444445em">1<tspan x="9.09" y="0" style="letter-spacing: -0.001220703125em">2</tspan><tspan x="19.08" y="0" style="letter-spacing: 0.0007052951388888889em">0</tspan><tspan x="29.11" y="0" style="letter-spacing: 0.005995008680555556em">3</tspan></text>
    <text class="selectableMapComponent" transform="translate(592 451.89)" style="font-size: 18px;font-family: ArialMT, Arial;letter-spacing: -0.05088975694444445em">1<tspan x="9.09" y="0" style="letter-spacing: -0.001220703125em">2</tspan><tspan x="19.08" y="0" style="letter-spacing: -0.0016004774305555555em">0</tspan><tspan x="29.07" y="0" style="letter-spacing: 0.006022135416666667em">2</tspan></text>
    <text class="selectableMapComponent" transform="translate(601 473.89)" style="font-size: 18px;font-family: ArialMT, Arial;letter-spacing: -0.014187282986111112em">R<tspan x="12.74" y="0" style="letter-spacing: -0.001003689236111111em">e</tspan><tspan x="22.74" y="0" style="letter-spacing: -0.0034993489583333335em">i</tspan><tspan x="26.67" y="0" style="letter-spacing: -0.001003689236111111em">n</tspan><tspan x="36.67" y="0" style="letter-spacing: -0.005506727430555556em">d</tspan><tspan x="46.58" y="0" style="letter-spacing: -0.003390842013888889em">u</tspan><tspan x="56.53" y="0" style="letter-spacing: 0.00830078125em">c</tspan><tspan x="65.68" y="0" style="letter-spacing: 0.0022786458333333335em">ti</tspan><tspan x="74.76" y="0" style="letter-spacing: 0.0011121961805555555em">o</tspan><tspan x="84.79" y="0" style="letter-spacing: 0.005995008680555556em">n</tspan></text>
    <text class="selectableMapComponent" transform="translate(1083 473.89)" style="font-size: 18px;font-family: ArialMT, Arial;letter-spacing: 0.00018988715277777778em">S<tspan x="12.01" y="0" style="letter-spacing: -0.004177517361111111em">h</tspan><tspan x="21.94" y="0" style="letter-spacing: -0.0034993489583333335em">i</tspan><tspan x="25.88" y="0" style="letter-spacing: -0.0004069010416666667em">p</tspan><tspan x="35.88" y="0" style="letter-spacing: -0.0014105902777777778em">p</tspan><tspan x="45.87" y="0" style="letter-spacing: -0.0034993489583333335em">i</tspan><tspan x="49.81" y="0" style="letter-spacing: -0.0016004774305555555em">n</tspan><tspan x="59.79" y="0" style="letter-spacing: 0.005995008680555556em">g</tspan></text>
    <text class="selectableMapComponent" transform="translate(1059 451.89)" style="font-size: 18px;font-family: ArialMT, Arial;letter-spacing: -0.05088975694444445em">1<tspan x="9.09" y="0" style="letter-spacing: -0.001220703125em">2</tspan><tspan x="19.08" y="0" style="letter-spacing: -0.028889973958333332em">0</tspan><tspan x="28.57" y="0" style="letter-spacing: 0.005995008680555556em">1</tspan></text>
    <polygon class="selectableMapComponent" id="Level-02-LayerOutput" points="182.5 290.5 203.5 290.5 203.5 364.5 193.5 374.5 183.5 364.5 182.5 290.5" style="fill: #fff;stroke: #000;stroke-miterlimit: 10"/>
    <polygon class="selectableMapComponent" id="Level-03-LayerOutput" points="335.5 291.5 356.5 291.5 356.5 365.5 346.5 375.5 336.5 365.5 335.5 291.5" style="fill: #fff;stroke: #000;stroke-miterlimit: 10"/>
    <polygon class="selectableMapComponent" id="Level-04-LayerOutput" points="488.5 291.5 509.5 291.5 509.5 365.5 499.5 375.5 489.5 365.5 488.5 291.5" style="fill: #fff;stroke: #000;stroke-miterlimit: 10"/>
    <polygon class="selectableMapComponent" id="Level-05-LayerOutput" points="643.5 291.5 664.5 291.5 664.5 365.5 654.5 375.5 644.5 365.5 643.5 291.5" style="fill: #fff;stroke: #000;stroke-miterlimit: 10"/>
    <polygon class="selectableMapComponent" id="Level-06-LayerOutput" points="796.5 292.5 817.5 292.5 817.5 366.5 807.5 376.5 797.5 366.5 796.5 292.5" style="fill: #fff;stroke: #000;stroke-miterlimit: 10"/>
    <polygon class="selectableMapComponent" id="Level-07-LayerOutput" points="951.5 292.5 972.5 292.5 972.5 366.5 962.5 376.5 952.5 366.5 951.5 292.5" style="fill: #fff;stroke: #000;stroke-miterlimit: 10"/>
    <polygon class="selectableMapComponent" id="Level-08-LayerOutput" points="1106.5 292.5 1127.5 292.5 1127.5 366.5 1117.5 376.5 1107.5 366.5 1106.5 292.5" style="fill: #fff;stroke: #000;stroke-miterlimit: 10"/>
    <polygon class="selectableMapComponent" id="Level-09-LayerOutput" points="105.5 792.5 126.5 792.5 126.5 866.5 116.5 876.5 106.5 866.5 105.5 792.5" style="fill: #fff;stroke: #000;stroke-miterlimit: 10"/>
    <polygon class="selectableMapComponent" id="Level-10-LayerOutput" points="258.5 792.5 279.5 792.5 279.5 866.5 269.5 876.5 259.5 866.5 258.5 792.5" style="fill: #fff;stroke: #000;stroke-miterlimit: 10"/>
    <polygon class="selectableMapComponent" id="Level-11-LayerOutput" points="413.5 792.5 434.5 792.5 434.5 866.5 424.5 876.5 414.5 866.5 413.5 792.5" style="fill: #fff;stroke: #000;stroke-miterlimit: 10"/>
    <polygon class="selectableMapComponent" id="Level-12-LayerOutput" points="566.5 793.5 587.5 793.5 587.5 867.5 577.5 877.5 567.5 867.5 566.5 793.5" style="fill: #fff;stroke: #000;stroke-miterlimit: 10"/>
    <polygon class="selectableMapComponent" id="Level-13-LayerOutput" points="721.5 794.5 742.5 794.5 742.5 868.5 732.5 878.5 722.5 868.5 721.5 794.5" style="fill: #fff;stroke: #000;stroke-miterlimit: 10"/>
    <polygon class="selectableMapComponent" id="Level-14-LayerOutput" points="876.5 794.5 897.5 794.5 897.5 868.5 887.5 878.5 877.5 868.5 876.5 794.5" style="fill: #fff;stroke: #000;stroke-miterlimit: 10"/>
    <polygon class="selectableMapComponent" id="Level-15-LayerOutput" points="1029.5 795.5 1050.5 795.5 1050.5 869.5 1040.5 879.5 1030.5 869.5 1029.5 795.5" style="fill: #fff;stroke: #000;stroke-miterlimit: 10"/>
  </g>
  <g id="InputLifter" class="selectableArea">
    <rect class="selectableMapComponent" id="Level-01-InputLifter" x="27.5" y="382.5" width="21" height="21" style="fill: #fff;stroke: #000;stroke-miterlimit: 10"/>
  </g>
  <g id="OutputLifter" class="selectableArea">
    <rect class="selectableMapComponent" id="Level-01-OutputLifter" x="79.5" y="382.5" width="21" height="21" style="fill: #fff;stroke: #000;stroke-miterlimit: 10"/>
  </g>
  <g id="Cranes" class="selectableArea">
    <polygon class="selectableMapComponent" id="Level-01-Shuttle" points="58.5 163.5 58.5 174.5 51.5 174.5 51.5 198.5 58.5 198.5 58.5 208.5 68.5 208.5 68.5 198.5 75.5 198.5 75.5 174.5 68.5 174.5 68.5 163.5 58.5 163.5" style="fill: #fff;stroke: #000;stroke-miterlimit: 10"/>
    <text class="selectableMapComponent" id="Level-01-Shuttle-text" transform="translate(60 190.19)" style="font-size: 14px;font-family: ArialMT, Arial">1</text>
    <polygon class="selectableMapComponent" id="Level-02-LayerInput" points="255.5 373.5 234.5 373.5 234.5 299.5 244.5 289.5 254.5 299.5 255.5 373.5" style="fill: #fff;stroke: #000;stroke-miterlimit: 10"/>
    <polygon class="selectableMapComponent" id="Level-02-Shuttle" points="213.5 163.5 213.5 174.5 206.5 174.5 206.5 198.5 213.5 198.5 213.5 208.5 223.5 208.5 223.5 198.5 230.5 198.5 230.5 174.5 223.5 174.5 223.5 163.5 213.5 163.5" style="fill: #fff;stroke: #000;stroke-miterlimit: 10"/>
    <text class="selectableMapComponent" id="Level-02-Shuttle-text" transform="translate(215 190.32)" style="font-size: 14px;font-family: ArialMT, Arial">2</text>
    <polygon class="selectableMapComponent" id="Level-03-Shuttle" points="366.5 164.5 366.5 175.5 359.5 175.5 359.5 199.5 366.5 199.5 366.5 209.5 376.5 209.5 376.5 199.5 383.5 199.5 383.5 175.5 376.5 175.5 376.5 164.5 366.5 164.5" style="fill: #fff;stroke: #000;stroke-miterlimit: 10"/>
    <text class="selectableMapComponent" id="Level-03-Shuttle-text" transform="translate(369 191.42)" style="font-size: 14px;font-family: ArialMT, Arial">3</text>
    <polygon class="selectableMapComponent" id="Level-04-Shuttle" points="519.5 164.5 519.5 175.5 512.5 175.5 512.5 199.5 519.5 199.5 519.5 209.5 529.5 209.5 529.5 199.5 536.5 199.5 536.5 175.5 529.5 175.5 529.5 164.5 519.5 164.5" style="fill: #fff;stroke: #000;stroke-miterlimit: 10"/>
    <text class="selectableMapComponent" id="Level-04-Shuttle-text"  transform="translate(520 192.99)" style="font-size: 14px;font-family: ArialMT, Arial">4</text>
    <polygon class="selectableMapComponent" id="Level-05-Shuttle" points="674.5 164.5 674.5 175.5 667.5 175.5 667.5 199.5 674.5 199.5 674.5 209.5 684.5 209.5 684.5 199.5 691.5 199.5 691.5 175.5 684.5 175.5 684.5 164.5 674.5 164.5" style="fill: #fff;stroke: #000;stroke-miterlimit: 10"/>
    <text class="selectableMapComponent" id="Level-05-Shuttle-text"  transform="translate(676 191.88)" style="font-size: 14px;font-family: ArialMT, Arial">5</text>
    <polygon class="selectableMapComponent" id="Level-06-Shuttle" points="827.5 165.5 827.5 176.5 820.5 176.5 820.5 200.5 827.5 200.5 827.5 210.5 837.5 210.5 837.5 200.5 844.5 200.5 844.5 176.5 837.5 176.5 837.5 165.5 827.5 165.5" style="fill: #fff;stroke: #000;stroke-miterlimit: 10"/>
    <text class="selectableMapComponent" id="Level-06-Shuttle-text"  transform="translate(828 192.88)" style="font-size: 14px;font-family: ArialMT, Arial">6</text>
    <polygon class="selectableMapComponent" id="Level-07-Shuttle" points="982.5 165.5 982.5 176.5 975.5 176.5 975.5 200.5 982.5 200.5 982.5 210.5 992.5 210.5 992.5 200.5 999.5 200.5 999.5 176.5 992.5 176.5 992.5 165.5 982.5 165.5" style="fill: #fff;stroke: #000;stroke-miterlimit: 10"/>
    <text class="selectableMapComponent" id="Level-07-Shuttle-text"  transform="translate(984 192.88)" style="font-size: 14px;font-family: ArialMT, Arial">7</text>
    <polygon class="selectableMapComponent" id="Level-08-Shuttle" points="1137.5 165.5 1137.5 176.5 1130.5 176.5 1130.5 200.5 1137.5 200.5 1137.5 210.5 1147.5 210.5 1147.5 200.5 1154.5 200.5 1154.5 176.5 1147.5 176.5 1147.5 165.5 1137.5 165.5" style="fill: #fff;stroke: #000;stroke-miterlimit: 10"/>
    <text class="selectableMapComponent" id="Level-08-Shuttle-text"  transform="translate(1139 192.19)" style="font-size: 14px;font-family: ArialMT, Arial">8</text>
    <polygon class="selectableMapComponent" id="Level-09-Shuttle" points="136.5 665.5 136.5 676.5 129.5 676.5 129.5 700.5 136.5 700.5 136.5 710.5 146.5 710.5 146.5 700.5 153.5 700.5 153.5 676.5 146.5 676.5 146.5 665.5 136.5 665.5" style="fill: #fff;stroke: #000;stroke-miterlimit: 10"/>
    <text class="selectableMapComponent" id="Level-09-Shuttle-text"  transform="translate(138 692.88)" style="font-size: 14px;font-family: ArialMT, Arial">9</text>
    <polygon class="selectableMapComponent" id="Level-10-Shuttle" points="289.5 665.5 289.5 676.5 282.5 676.5 282.5 700.5 289.5 700.5 289.5 710.5 299.5 710.5 299.5 700.5 306.5 700.5 306.5 676.5 299.5 676.5 299.5 665.5 289.5 665.5" style="fill: #fff;stroke: #000;stroke-miterlimit: 10"/>
    <text class="selectableMapComponent"  id="Level-10-Shuttle-text"  transform="translate(287 692.88)" style="font-size: 14px;font-family: ArialMT, Arial">10</text>
    <polygon class="selectableMapComponent" id="Level-11-Shuttle" points="444.5 665.5 444.5 676.5 437.5 676.5 437.5 700.5 444.5 700.5 444.5 710.5 454.5 710.5 454.5 700.5 461.5 700.5 461.5 676.5 454.5 676.5 454.5 665.5 444.5 665.5" style="fill: #fff;stroke: #000;stroke-miterlimit: 10"/>
    <text class="selectableMapComponent" id="Level-11-Shuttle-text"  transform="translate(442 692.88)" style="font-size: 14px;font-family: ArialMT, Arial">11</text>
    <polygon class="selectableMapComponent" id="Level-12-Shuttle" points="597.5 666.5 597.5 677.5 590.5 677.5 590.5 701.5 597.5 701.5 597.5 711.5 607.5 711.5 607.5 701.5 614.5 701.5 614.5 677.5 607.5 677.5 607.5 666.5 597.5 666.5" style="fill: #fff;stroke: #000;stroke-miterlimit: 10"/>
    <text class="selectableMapComponent" id="Level-12-Shuttle-text"  transform="translate(595 693.88)" style="font-size: 14px;font-family: ArialMT, Arial">12</text>
    <polygon class="selectableMapComponent" id="Level-13-Shuttle" points="752.5 667.5 752.5 678.5 745.5 678.5 745.5 702.5 752.5 702.5 752.5 712.5 762.5 712.5 762.5 702.5 769.5 702.5 769.5 678.5 762.5 678.5 762.5 667.5 752.5 667.5" style="fill: #fff;stroke: #000;stroke-miterlimit: 10"/>
    <text class="selectableMapComponent"  id="Level-13-Shuttle-text" transform="translate(750 695.12)" style="font-size: 14px;font-family: ArialMT, Arial">13</text>
    <polygon class="selectableMapComponent" id="Level-14-Shuttle" points="907.5 667.5 907.5 678.5 900.5 678.5 900.5 702.5 907.5 702.5 907.5 712.5 917.5 712.5 917.5 702.5 924.5 702.5 924.5 678.5 917.5 678.5 917.5 667.5 907.5 667.5" style="fill: #fff;stroke: #000;stroke-miterlimit: 10"/>
    <text class="selectableMapComponent" id="Level-14-Shuttle-text"  transform="translate(905 695.12)" style="font-size: 14px;font-family: ArialMT, Arial">14</text>
    <polygon class="selectableMapComponent" id="Level-15-Shuttle" points="1060.5 668.5 1060.5 679.5 1053.5 679.5 1053.5 703.5 1060.5 703.5 1060.5 713.5 1070.5 713.5 1070.5 703.5 1077.5 703.5 1077.5 679.5 1070.5 679.5 1070.5 668.5 1060.5 668.5" style="fill: #fff;stroke: #000;stroke-miterlimit: 10"/>
    <text class="selectableMapComponent" id="Level-15-Shuttle-text"  transform="translate(1058 696.42)" style="font-size: 14px;font-family: ArialMT, Arial">15</text>
  </g>
  <g id="SwapZones" class="selectableArea">
    <rect class="selectableMapComponent" id="Level-01-Swap" x="16.5" y="32.5" width="94" height="27" style="fill: #fff;stroke: #000;stroke-miterlimit: 10"/>
    <text class="selectableMapComponent"  id="Level-01-Swap-text"  transform="translate(24 52.27) scale(0.84 1)" style="font-size: 17.60533905029297px;font-family: ArialMT, Arial">UNKNOWN</text>
    <rect class="selectableMapComponent" id="Level-02-Swap" x="171.5" y="32.5" width="94" height="27" style="fill: #fff;stroke: #000;stroke-miterlimit: 10"/>
    <text class="selectableMapComponent" id="Level-02-Swap-text"  transform="translate(179 52.27) scale(0.84 1)" style="font-size: 17.60533905029297px;font-family: ArialMT, Arial">UNKNOWN</text>
    <rect class="selectableMapComponent" id="Level-03-Swap" x="324.5" y="33.5" width="94" height="27" style="fill: #fff;stroke: #000;stroke-miterlimit: 10"/>
    <text class="selectableMapComponent" id="Level-03-Swap-text"  transform="translate(332 53.27) scale(0.84 1)" style="font-size: 17.60533905029297px;font-family: ArialMT, Arial">UNKNOWN</text>
    <rect class="selectableMapComponent" id="Level-04-Swap" x="477.5" y="33.5" width="94" height="27" style="fill: #fff;stroke: #000;stroke-miterlimit: 10"/>
    <text class="selectableMapComponent" id="Level-04-Swap-text"  transform="translate(485 53.27) scale(0.84 1)" style="font-size: 17.60533905029297px;font-family: ArialMT, Arial">UNKNOWN</text>
    <rect class="selectableMapComponent" id="Level-05-Swap" x="632.5" y="33.5" width="94" height="27" style="fill: #fff;stroke: #000;stroke-miterlimit: 10"/>
    <text class="selectableMapComponent" id="Level-05-Swap-text"  transform="translate(640 53.27) scale(0.84 1)" style="font-size: 17.60533905029297px;font-family: ArialMT, Arial">UNKNOWN</text>
    <rect class="selectableMapComponent" id="Level-06-Swap" x="785.5" y="34.5" width="94" height="27" style="fill: #fff;stroke: #000;stroke-miterlimit: 10"/>
    <text class="selectableMapComponent" id="Level-06-Swap-text" transform="translate(793 54.27) scale(0.84 1)" style="font-size: 17.60533905029297px;font-family: ArialMT, Arial">UNKNOWN</text>
    <rect class="selectableMapComponent" id="Level-07-Swap" x="940.5" y="34.5" width="94" height="27" style="fill: #fff;stroke: #000;stroke-miterlimit: 10"/>
    <text class="selectableMapComponent" id="Level-07-Swap-text"  transform="translate(948 54.27) scale(0.84 1)" style="font-size: 17.60533905029297px;font-family: ArialMT, Arial">UNKNOWN</text>
    <rect class="selectableMapComponent" id="Level-08-Swap" x="1095.5" y="34.5" width="94" height="27" style="fill: #fff;stroke: #000;stroke-miterlimit: 10"/>
    <text class="selectableMapComponent" id="Level-08-Swap-text"  transform="translate(1103 54.27) scale(0.84 1)" style="font-size: 17.60533905029297px;font-family: ArialMT, Arial">UNKNOWN</text>
    <rect class="selectableMapComponent" id="Level-09-Swap" x="94.5" y="534.5" width="94" height="27" style="fill: #fff;stroke: #000;stroke-miterlimit: 10"/>
    <text class="selectableMapComponent" id="Level-09-Swap-text" transform="translate(102 554.27) scale(0.84 1)" style="font-size: 17.60533905029297px;font-family: ArialMT, Arial">UNKNOWN</text>
    <rect class="selectableMapComponent" id="Level-10-Swap" x="247.5" y="534.5" width="94" height="27" style="fill: #fff;stroke: #000;stroke-miterlimit: 10"/>
    <text class="selectableMapComponent" id="Level-10-Swap-text"  transform="translate(255 554.27) scale(0.84 1)" style="font-size: 17.60533905029297px;font-family: ArialMT, Arial">UNKNOWN</text>
    <rect class="selectableMapComponent" id="Level-11-Swap" x="402.5" y="534.5" width="94" height="27" style="fill: #fff;stroke: #000;stroke-miterlimit: 10"/>
    <text class="selectableMapComponent" id="Level-11-Swap-text"  transform="translate(410 554.27) scale(0.84 1)" style="font-size: 17.60533905029297px;font-family: ArialMT, Arial">UNKNOWN</text>
    <rect class="selectableMapComponent" id="Level-12-Swap" x="555.5" y="535.5" width="94" height="27" style="fill: #fff;stroke: #000;stroke-miterlimit: 10"/>
    <text class="selectableMapComponent" id="Level-12-Swap-text"  transform="translate(563 555.27) scale(0.84 1)" style="font-size: 17.60533905029297px;font-family: ArialMT, Arial">UNKNOWN</text>
    <rect class="selectableMapComponent" id="Level-13-Swap" x="710.5" y="536.5" width="94" height="27" style="fill: #fff;stroke: #000;stroke-miterlimit: 10"/>
    <text class="selectableMapComponent" id="Level-13-Swap-text"  transform="translate(718 556.27) scale(0.84 1)" style="font-size: 17.60533905029297px;font-family: ArialMT, Arial">UNKNOWN</text>
    <rect class="selectableMapComponent" id="Level-14-Swap" x="865.5" y="536.5" width="94" height="27" style="fill: #fff;stroke: #000;stroke-miterlimit: 10"/>
    <text class="selectableMapComponent" id="Level-14-Swap-text"  transform="translate(873 556.27) scale(0.84 1)" style="font-size: 17.60533905029297px;font-family: ArialMT, Arial">UNKNOWN</text>
    <rect class="selectableMapComponent" id="Level-15-Swap" x="1018.5" y="537.5" width="94" height="27" style="fill: #fff;stroke: #000;stroke-miterlimit: 10"/>
    <text class="selectableMapComponent" id="Level-15-Swap-text"  transform="translate(1026 557.27) scale(0.84 1)" style="font-size: 17.60533905029297px;font-family: ArialMT, Arial">UNKNOWN</text>
  </g>
  <g id="Fullness" class="selectableArea">
    <rect class="selectableMapComponent" id="Level-01-Fullness" x="16.5" y="0.5" width="94" height="27" style="fill: #fff;stroke: #000;stroke-miterlimit: 10"/>
    <text class="selectableMapComponent"  id="Level-01-Fullness-text"  transform="translate(24 20.27) scale(0.84 1)" style="font-size: 17.60533905029297px;font-family: ArialMT, Arial">UNKNOWN</text>
    <rect class="selectableMapComponent" id="Level-02-Fullness" x="171.5" y="0.5" width="94" height="27" style="fill: #fff;stroke: #000;stroke-miterlimit: 10"/>
    <text class="selectableMapComponent"  id="Level-02-Fullness-text"  transform="translate(179 20.27) scale(0.84 1)" style="font-size: 17.60533905029297px;font-family: ArialMT, Arial">UNKNOWN</text>
    <rect class="selectableMapComponent" id="Level-03-Fullness" x="324.5" y="1.5" width="94" height="27" style="fill: #fff;stroke: #000;stroke-miterlimit: 10"/>
    <text class="selectableMapComponent" id="Level-03-Fullness-text"  transform="translate(332 21.27) scale(0.84 1)" style="font-size: 17.60533905029297px;font-family: ArialMT, Arial">UNKNOWN</text>
    <rect class="selectableMapComponent" id="Level-04-Fullness" x="477.5" y="1.5" width="94" height="27" style="fill: #fff;stroke: #000;stroke-miterlimit: 10"/>
    <text class="selectableMapComponent"  id="Level-04-Fullness-text" transform="translate(485 21.27) scale(0.84 1)" style="font-size: 17.60533905029297px;font-family: ArialMT, Arial">UNKNOWN</text>
    <rect class="selectableMapComponent" id="Level-05-Fullness" x="632.5" y="1.5" width="94" height="27" style="fill: #fff;stroke: #000;stroke-miterlimit: 10"/>
    <text class="selectableMapComponent"  id="Level-05-Fullness-text"  transform="translate(640 21.27) scale(0.84 1)" style="font-size: 17.60533905029297px;font-family: ArialMT, Arial">UNKNOWN</text>
    <rect class="selectableMapComponent" id="Level-06-Fullness" x="785.5" y="2.5" width="94" height="27" style="fill: #fff;stroke: #000;stroke-miterlimit: 10"/>
    <text class="selectableMapComponent"  id="Level-06-Fullness-text" transform="translate(793 22.27) scale(0.84 1)" style="font-size: 17.60533905029297px;font-family: ArialMT, Arial">UNKNOWN</text>
    <rect class="selectableMapComponent" id="Level-07-Fullness" x="940.5" y="2.5" width="94" height="27" style="fill: #fff;stroke: #000;stroke-miterlimit: 10"/>
    <text class="selectableMapComponent" id="Level-07-Fullness-text"  transform="translate(948 22.27) scale(0.84 1)" style="font-size: 17.60533905029297px;font-family: ArialMT, Arial">UNKNOWN</text>
    <rect class="selectableMapComponent" id="Level-08-Fullness" x="1095.5" y="2.5" width="94" height="27" style="fill: #fff;stroke: #000;stroke-miterlimit: 10"/>
    <text class="selectableMapComponent" id="Level-08-Fullness-text"  transform="translate(1103 22.27) scale(0.84 1)" style="font-size: 17.60533905029297px;font-family: ArialMT, Arial">UNKNOWN</text>
    <rect class="selectableMapComponent" id="Level-09-Fullness" x="94.5" y="502.5" width="94" height="27" style="fill: #fff;stroke: #000;stroke-miterlimit: 10"/>
    <text class="selectableMapComponent" id="Level-09-Fullness-text"  transform="translate(102 522.27) scale(0.84 1)" style="font-size: 17.60533905029297px;font-family: ArialMT, Arial">UNKNOWN</text>
    <rect class="selectableMapComponent" id="Level-10-Fullness" x="247.5" y="502.5" width="94" height="27" style="fill: #fff;stroke: #000;stroke-miterlimit: 10"/>
    <text class="selectableMapComponent" id="Level-10-Fullness-text"  transform="translate(255 522.27) scale(0.84 1)" style="font-size: 17.60533905029297px;font-family: ArialMT, Arial">UNKNOWN</text>
    <rect class="selectableMapComponent" id="Level-11-Fullness" x="402.5" y="502.5" width="94" height="27" style="fill: #fff;stroke: #000;stroke-miterlimit: 10"/>
    <text class="selectableMapComponent" id="Level-11-Fullness-text"  transform="translate(410 522.27) scale(0.84 1)" style="font-size: 17.60533905029297px;font-family: ArialMT, Arial">UNKNOWN</text>
    <rect class="selectableMapComponent" id="Level-12-Fullness" x="555.5" y="503.5" width="94" height="27" style="fill: #fff;stroke: #000;stroke-miterlimit: 10"/>
    <text class="selectableMapComponent" id="Level-12-Fullness-text"  transform="translate(563 523.27) scale(0.84 1)" style="font-size: 17.60533905029297px;font-family: ArialMT, Arial">UNKNOWN</text>
    <rect class="selectableMapComponent" id="Level-13-Fullness" x="710.5" y="504.5" width="94" height="27" style="fill: #fff;stroke: #000;stroke-miterlimit: 10"/>
    <text class="selectableMapComponent" id="Level-13-Fullness-text"  transform="translate(718 524.27) scale(0.84 1)" style="font-size: 17.60533905029297px;font-family: ArialMT, Arial">UNKNOWN</text>
    <rect class="selectableMapComponent" id="Level-14-Fullness" x="865.5" y="504.5" width="94" height="27" style="fill: #fff;stroke: #000;stroke-miterlimit: 10"/>
    <text class="selectableMapComponent" id="Level-14-Fullness-text"  transform="translate(873 524.27) scale(0.84 1)" style="font-size: 17.60533905029297px;font-family: ArialMT, Arial">UNKNOWN</text>
    <rect class="selectableMapComponent" id="Level-15-Fullness" x="1018.5" y="505.5" width="94" height="27" style="fill: #fff;stroke: #000;stroke-miterlimit: 10"/>
    <text class="selectableMapComponent" id="Level-15-Fullness-text"  transform="translate(1026 525.27) scale(0.84 1)" style="font-size: 17.60533905029297px;font-family: ArialMT, Arial">UNKNOWN</text>
  </g>
</svg>
